{
  "accessors": [
    {
      "bufferView": 2,
      "componentType": 5126,
      "count": 18813,
      "max": [
        8.796879768371582,
        13.607898712158203,
        28.126859664916992
      ],
      "min": [
        -11.088327407836914,
        -8.5569047927856445,
        -1.6673918962478638
      ],
      "type": "VEC3"
    },
    {
      "bufferView": 2,
      "byteOffset": 225756,
      "componentType": 5126,
      "count": 18813,
      "max": [
        0.99994748830795288,
        0.99998146295547485,
        0.99999731779098511
      ],
      "min": [
        -0.99983340501785278,
        -0.99980241060256958,
        -0.99963784217834473
      ],
      "type": "VEC3"
    },
    {
      "bufferView": 1,
      "componentType": 5126,
      "count": 18813,
      "max": [
        0.99950402975082397,
        0.99951201677322388
      ],
      "min": [
        0.00048799999058246613,
        0.0005080000264570117
      ],
      "type": "VEC2"
    },
    {
      "bufferView": 0,
      "componentType": 5125,
      "count": 59238,
      "max": [
        18812
      ],
      "min": [
        0
      ],
      "type": "SCALAR"
    }
  ],
  "asset": {
    "extras": {
      "author": "albertsierra (https://sketchfab.com/albertsierra)",
      "license": "CC-BY-4.0 (http://creativecommons.org/licenses/by/4.0/)",
      "source": "https://sketchfab.com/3d-models/electrical-connection-box-barcelona-46836ceb0cf54a01abd35e0a0f4cec03",
      "title": "Electrical Connection Box. Barcelona"
    },
    "generator": "Sketchfab-8.47.0",
    "version": "2.0"
  },
  "bufferViews": [
    {
      "buffer": 0,
      "byteLength": 236952,
      "byteOffset": 0,
      "name": "floatBufferViews",
      "target": 34963
    },
    {
      "buffer": 0,
      "byteLength": 150504,
      "byteOffset": 236952,
      "byteStride": 8,
      "name": "floatBufferViews",
      "target": 34962
    },
    {
      "buffer": 0,
      "byteLength": 451512,
      "byteOffset": 387456,
      "byteStride": 12,
      "name": "floatBufferViews",
      "target": 34962
    }
  ],
  "buffers": [
    {
      "byteLength": 838968,
      "uri": "scene.bin"
    }
  ],
  "images": [
    {
      "uri": "textures/caixa_de_connexions_u1_v1_baseColor.jpeg"
    }
  ],
  "materials": [
    {
      "doubleSided": true,
      "emissiveFactor": [
        0,
        0,
        0
      ],
      "name": "caixa_de_connexions_u1_v1",
      "pbrMetallicRoughness": {
        "baseColorFactor": [
          1,
          1,
          1,
          1
        ],
        "baseColorTexture": {
          "index": 0,
          "texCoord": 0
        },
        "metallicFactor": 0,
        "roughnessFactor": 1
      }
    }
  ],
  "meshes": [
    {
      "primitives": [
        {
          "attributes": {
            "NORMAL": 1,
            "POSITION": 0,
            "TEXCOORD_0": 2
          },
          "indices": 3,
          "material": 0,
          "mode": 4
        }
      ]
    }
  ],
  "nodes": [
    {
      "children": [
        1
      ],
      "name": "RootNode (gltf orientation matrix)",
      "rotation": [
        -0.70710678118654746,
        -0,
        -0,
        0.70710678118654757
      ]
    },
    {
      "children": [
        2
      ],
      "name": "RootNode (model correction matrix)"
    },
    {
      "children": [
        3
      ],
      "name": "caixa_de_connexions.obj.cleaner.materialmerger.gles"
    },
    {
      "mesh": 0,
      "name": ""
    }
  ],
  "samplers": [
    {
      "magFilter": 9729,
      "minFilter": 9987,
      "wrapS": 10497,
      "wrapT": 10497
    }
  ],
  "scene": 0,
  "scenes": [
    {
      "name": "OSG_Scene",
      "nodes": [
        0
      ]
    }
  ],
  "textures": [
    {
      "sampler": 0,
      "source": 0
    }
  ]
}

